# xmcd
#
# Track frame offsets:
#	150
#	22526
#	37846
#	52958
#	67952
#
# Disc length: 1133 seconds
#
# Revision: 1
# Processed by: cddbd v1.5.1PL0 Copyright (c) Steve Scherf et al.
# Submitted via: CDex 1.50Beta5
#
DISCID=2a046b05
DTITLE=The '80s Plus - Round1 Sound Cocktail Vol.5
DYEAR=1900
DGENRE=Rock
TTITLE0=アフリカ／Toto
TTITLE1=ノックは夜中に／メン・アット・ワーク
TTITLE2=ロンリー・フリーウェイ／ラリー・リー
TTITLE3=オープン・ユア・アームズ／ジャーニー
TTITLE4=ユア・オンリー・ロンリー／J.D.サウザー
EXTD=
EXTT0=
EXTT1=
EXTT2=
EXTT3=
EXTT4=
PLAYORDER=
